<?xml version="1.0" encoding="UTF-8"?>
<svg id="_圖層_1" data-name="圖層 1" xmlns="http://www.w3.org/2000/svg" viewBox="0 0 695.43 250.95">
  <defs>
    <style>
      .cls-1 {
        fill: #003e8b;
      }
    </style>
  </defs>
  <path class="cls-1" d="M249.69,27.89c-1.74-6.48-5.15-12.27-9.76-16.87-4.6-4.6-10.39-8.02-16.87-9.75-3.11-.83-6.37-1.27-9.75-1.27H37.64c-3.37,0-6.64.44-9.75,1.27-6.47,1.74-12.26,5.15-16.87,9.76C6.43,15.63,3.01,21.42,1.27,27.89c-.83,3.12-1.27,6.38-1.27,9.76v175.66c0,3.37.44,6.64,1.27,9.76,1.74,6.48,5.15,12.27,9.76,16.87,4.6,4.6,10.39,8.02,16.87,9.75,3.11.83,6.37,1.27,9.75,1.27h175.67c3.37,0,6.64-.44,9.75-1.27,6.48-1.73,12.27-5.14,16.87-9.75,4.59-4.59,8.01-10.38,9.75-16.87.83-3.12,1.27-6.38,1.27-9.76V37.64c0-3.37-.44-6.64-1.27-9.76ZM213.32,18.82c5.19,0,9.88,2.11,13.3,5.52l-87.82,87.83L45.44,18.82h167.87ZM18.82,37.64c0-5.19,2.11-9.9,5.52-13.3l74.52,74.52c7.35,7.35,7.35,19.26,0,26.61h0S18.82,205.52,18.82,205.52V37.64ZM37.64,232.13c-5.19,0-9.9-2.11-13.3-5.52l87.82-87.83,93.35,93.35H37.64ZM232.14,213.31c0,5.19-2.12,9.9-5.52,13.31l-74.53-74.53c-7.35-7.35-7.35-19.26,0-26.61h0s80.04-80.04,80.04-80.04v167.87Z"/>
  <polygon class="cls-1" points="397.91 177.5 327.5 84.38 299.22 84.38 369.63 177.5 397.91 177.5"/>
  <polygon class="cls-1" points="327.5 177.5 397.91 84.38 369.63 84.38 299.22 177.5 327.5 177.5"/>
  <rect class="cls-1" x="412.21" y="93.01" width="23" height="84.49"/>
  <rect class="cls-1" x="514.7" y="112.75" width="23" height="64.74"/>
  <rect class="cls-1" x="457.96" y="84.38" width="23" height="93.11"/>
  <path class="cls-1" d="M514.7,121.57c0-9.32-7.55-16.87-16.87-16.87s-16.87,7.55-16.87,16.87v-8.81c0-15.67,12.7-28.37,28.37-28.37s28.37,12.7,28.37,28.37l-23,8.81Z"/>
  <rect class="cls-1" x="571.44" y="112.75" width="23" height="64.74"/>
  <rect class="cls-1" x="612.77" y="84.38" width="23" height="53.67"/>
  <rect class="cls-1" x="672.43" y="84.38" width="23" height="53.67"/>
  <path class="cls-1" d="M571.44,121.57c0-9.32-7.55-16.87-16.87-16.87s-16.87,7.55-16.87,16.87v-8.81c0-15.67,12.7-28.37,28.37-28.37s28.37,12.7,28.37,28.37l-23,8.81Z"/>
  <circle class="cls-1" cx="423.71" cy="72.88" r="11.5"/>
  <path class="cls-1" d="M654.1,156.39c-10.12,0-18.33-8.21-18.33-18.33h-23c0,22.83,18.5,41.33,41.33,41.33s41.33-18.5,41.33-41.33h-23c0,10.12-8.21,18.33-18.33,18.33Z"/>
</svg>